<svg xmlns="http://www.w3.org/2000/svg" width="64" height="64" viewBox="0 0 1773 1773"><g fill="#dcae51"><path d="m865 286 24 25v2q9 11 14 22l13 27 3 8 4 8 6 15 2 2 23 9q7 6 15 10l11 5 11 7 21 14 5 5h1l3 1 14 12 12 10 11 11 20 25 10 12 3 4 6 10 5 10 5 9q13 21 19 41l6 17 5 15 3 11 3 11 4 24q4 21 5 46 3 45-2 89l-2 23-6 43q-4 27-10 50l-5 29-2 5q-12 38-25 72l-37 88-8 16 1 1h119l1 10h-2l-86 1-31-1-1 1 2 26 1 1h120l1-1v-1l1 1q38 7 52 43 3 8 4 18h-148l-1 1 1 48v21H745v-69l-1-1H617l-18 1-22-1q0-19 13-36 16-21 42-24l1-1h1q-1 0 0 0v1h141a1 1 0 0 0 2-2v-25l-139-1 2-10h138l-1 9a1 1 0 0 0 2 2h276l1-1-1-9-1-1H780l-1-1 5-19 4-18 10-42q4-18 12-34l9-11 11-16 39-50 12-14 19-24 2-3 1-2 22-31 9-15 8-13 8-15 6-10 4-11 3-8 3-7 4-11 6-21c4-16 5-30 7-50l-1-24-2-31-4-27-5-25-3-11-1-5-2-8a1 1 0 0 0-2 0v1l-11-37q-2-10-5-15l-5-15h-1v1l-10 17v-2h-1l-7 11-8 10-19 30-11 15-3 3-2 3 3-3-3 4h-1l-6 10q-6 8-9 15l-10 13-4 4-104 10 3 1-12 1-46 40-30 27-6 6-21 19-17 13-28 25h-2l-5-4-21-16-11-8q-3-2-2-4l12-25 1-5v-4l-13-33-2-1h2l21-23 4-5-3 4 1 1 16-15 9-9 11-10 23-19 15-15 12-10q14-11 32-29l25-21 1-1 1-3v1q-2 2 0 5 11 20 33 18 19-3 28-19c4-8 6-20 3-28q-3-6-8-11h-1l27-28a1 1 32 0 0 0-2h-2l4-1v-1l-3-36-1-17q0-16-2-30-2-10-1-15l14 6 47 26h1v-1q4-8 3-17 0-14-3-28l-4-13q-1-6-5-12l-9-14-3-4-2-3-17-25-4-5-4-6-1-1-2-2v-1l-3-4-1-1-1 1-6-10 3 1q36 10 63 34zM1077 355l-22 14-65-33-5-26-1-2h1l36 18 45 23z"/><path d="m677 431 9 12 23 30 3 1-19 47-1 1-2 2v-2l-34-17-2-1-2-1zM1202 492l46 134q-14-4-27-10l-19-53-8-23-8-22zM888 599l-4 7-3 5 7-14h1zM1253 659l10 137v2l-4-3-21-19-1-1-7-95zM1185 767l15 13 16 14 14 14h2l1 2 26 24 2 3-10 86-3 20-3 19-6-7-15-20 5-49 5-37-1-4q-6-7-15-24l-11-16-10-15-6-12-7-10zM853 771l10 7 23 17q9 7 20 13l29 21-16 23-19 25-12 14-8 10-10 13-4 6-6 8-13 15-21 29-14 20-9 16-6 8-5 12-6-2-41-14-24-8-24-7-22-8q19-35 46-67l29-34q17-21 33-37l27-30q22-24 43-50M1166 911l15 19 6 6 7 9 17 22 1 1h1l22 29 3 4-27 8-2-2-15-30-9-18-4-11-4-10-10-21zM742 1318l-2 4-9 10-2 2a1 1 0 0 0 1 2h373l2-1-15-17h156q7 0 12 4 6 5 7 14h-159l-1 1v43H728v-44H548q2-14 15-18h179"/></g><g fill="#775016"><path d="m793 247 6 10 25 43 6 11 5 11 6 15 5 16q4 13 8 35l1 4v1h-1l-47-26-14-6v-45l-1-24v-43q0-3 1-2M957 301l11 31v3l-24 41-2 4 1 2 14 5 13 7 26 11h3l56-36 22-14v1l-5 33-49 28-1 1v1l4 3 9 9 1 1h1q6 7 11 10l6 5h1l3 4h1l1 1 8 6 7 7 10 10q3 3 5 3h1l67-10 24-4h1l-17 30-56 5h-1l-1 1 6 9q4 12 11 24l8 15 7 12 6 10v1q2 7 5 12l3 7 3 2 9 3 24 9 10 4q3 0 8 3l13 5q13 6 27 10v1l-24 20h-3q-16-6-29-13l-27-10v1l1 9 1 10q2 13 5 21l4 22 3 16 2 20 3 6 11 8 25 22 17 16 1 1 21 19 4 3v1l-1 1-30 8h-2l-14-14-16-14-15-13-3-3h-1l-1 12-4 38-4 54v3l9 11v1q2 0 2 2l1 2q13 13 23 28l8 10 9 10 15 20 6 7v1l-32 5h-1l-1-1-17-22-7-9-6-6-15-19-1-2h-1l-7 29-3 16-17 78-22 98h-59l-1-1 8-16 37-88q13-34 25-72l2-5 16-60 10-51q7-42 9-82l1-35q-1-22-6-56l-4-19-10-39-6-17-19-41q-3-8-11-19l-21-30-16-19-31-27-5-4-14-10-16-10q-22-14-50-25l-23-9-2-2-6-15q-1-3-1-5l25-53zM697 343l35 5 21 36-17 10v1h-1l-39-52zM769 493q8 14 1 28a31 31 0 0 1-54 5v-1l-3-6q-5-21 10-34 11-9 25-6 13 2 21 14"/><path d="M963 574q8 29 10 60v2l-2 1-17 26q-9 13-21 26l-15 15-14 13-13 11q-9 8-21 15 6-14 7-25 2-13 1-28l-1-9 3-3 14-14 5-6 13-15 6-10 5-10q10-19 13-46l1-7 1-16v-1l1-3v-20l1-11 1-11v-1h1l5 15q3 5 5 15zM737 650l4 7 16 27 5 9 5 8-73 47-2 3-14 37-5 10q-4 6-11 9l-17 5 10-89 6-6 30-27zM548 681l13 33v4l-1 5-12 25v2a1 1 0 0 1-2 1l-1-1v-1l2-10q1-12-3-21-2-6-8-6t-12 3h-1a1 1 0 0 1-1-2l25-32zM634 742zv1l-3 10q-5 16-14 30l-20 37v3q-4 0-9-3l-26-17 9-9 16-13 1-1 28-25zM1238 1001l-16 90-1 2-28 22v-2l1-1 7-49 4-26 4-27 2-1zM1225 1298l-12 20H601l-13-20h637M728 1380h537l-1 1q-11 10-22 17l-12 5-13 1H591q-14-2-27-11l-15-12-1-3 2 1 1 1h177"/></g><g fill="#b18233"><path d="m947 320-25 53q0 2 1 5l-4-8-3-8-13-27q-5-11-14-22v-2zM793 316v45h-1l-26 15-6 4-7 4-21-36 14-8 14-8zM1055 369l-56 36h-3l-26-11-13-7-14-5-1-2 2-4v1h1l7-6 15-13 23-22zM1158 468l-67 10h-1q-2 0-5-3l-10-10-7-7-8-6-1-1h-1l-3-4h-1l-6-5q-5-3-11-10h-1l-1-1-9-9-4-3v-1l1-1 10-1 7-1 3-1q19-5 55-11l3 1 32 36 24 27zM796 461h2a1 1 32 0 1 0 2l-27 28-2 2q-8-12-21-14-14-3-25 6-15 13-10 34l3 6-1 3-1 1-25 21q-18 18-32 29l-12 10-15 15-23 19-11 10-9 9-16 15-1-1 3-4 5-6h1l1-1 13-15 23-25 10-12 15-15 19-22 7-8 7-7 16-17 2-2 1-1 19-47 30-5zM1110 499zq18 4 35 9l41 9 8 22 8 23 19 53-13-5q-5-3-8-3l-10-4-24-9-9-3-3-2-3-7q-3-5-5-12v-1l-6-10-7-12-8-15q-7-12-11-24l-6-9 1-1zM941 508l-1 11-1 11v20l-1 3v1l-1 16-1 7q-4 27-13 46l-5 10-6 10-13 15-5 6-14 14-3 3-27 14q-22 9-43 10-19 1-40-4l-5-8-5-9-16-27-4-7 12-1h109l1-1 8-15 14-22 3-5 4-7q7-15 16-29l15-26q4-9 12-19zM1165 624l11 10 13 10 13 11 27 23 1 2 7 95-17-16-25-22-11-8-3-6-2-20-3-16-4-22q-3-8-5-21l-1-10zM935 829l-29-21q-11-7-20-13l-23-17-10-7 17-28q12-7 21-15l13-11 14-13 15-15q12-13 21-26l17-26 2-1v-2q3 18 3 35l-1 25q-1 32-9 64l-10 31-5 12-11 20zM546 680l2 1h-1l-25 32a1 1 0 0 0 1 2h1q6-3 12-3t8 6q4 9 3 21l-2 10v1l1 1a1 1 0 0 0 2-1v-2q-1 2 2 4l11 8 21 16 5 4h2l-1 1-16 13-9 9-26-17-12-8q-8-5-11-9-4-7-4-14l-2-50-1-14v-15zM655 723l-10 89-27 7-20 4v-3l20-37q9-14 14-30l3-10v-1h-1zM1185 767l-1 1 7 10 6 12 10 15 11 16q9 17 15 24l1 4-5 37-5 49-9-10-8-10q-10-15-23-28l-1-2q0-2-2-2v-1l-9-11v-3l4-54 4-38 1-12h1zM1166 911l1 6 10 21 4 10 4 11 9 18 15 30 2 2-2 1-4 27-4 26-7 49-1 1v2l-18 15h-60l22-98 17-78 3-16 7-29h1zM792 1028q-6 22-9 45l-4 26-1 31H640l3-30q5-43 20-83l11-24 1-4 22 8 24 7 24 8 41 14zM634 1167l4-27 139 1v25a1 1 0 0 1-2 2zq-1 0 0 0M1176 1140l4 26v1l-1 1h-120l-1-1-2-26 1-1 31 1 86-1zM745 1298H588l-11-17-1-4 1-49 22 1 18-1h127l1 1zM1237 1228v51l-3 6-9 13h-136v-21l-1-48 1-1h148M728 1380H551l-1-1-2-1v-42h180v44M1265 1336v44h-160v-43l1-1z"/></g><g fill="#fbde8e"><path d="m855 392-1-4q-4-22-8-35l-5-16-6-15-5-11-6-11-25-43 1-1 1 1 3 4v1l2 2 1 1 4 6 4 5 17 25 2 3 3 4 9 14q4 6 5 12l4 13q3 14 3 28 1 9-3 17M957 301l-10 19-58-9-24-25 74 11 17 3zM793 316l-33 16-14 8-14 8-35-5 3-4 27-14 30-16 33-16 1-1h1zM990 336l-23 22-15 13-7 6h-1v-1l24-41v-3l4-5 12-19 1 2zM793 361q-1 5 1 15 2 14 2 30l1 17 3 36v1l-4 1-54 8-30 5-3-1-23-30-9-12 5-4 53-31v-1h1v-1l17-10 7-4 6-4 26-15zM1182 464l-24 4-1-1-24-27-32-36-3-1q-36 6-55 11l-3 1-7 1-10 1 49-28 2-1 3-2 23-13q4-1 6 2l74 84zM954 404q28 11 50 25l16 10 14 10 5 4 31 27 16 19 21 30q8 11 11 19l19 41 6 17 10 39 4 19q5 34 6 56l-1 35q-2 40-9 82l-10 51-16 60 5-29q6-23 10-50l6-43 2-23a706 706 0 0 0-3-135l-4-24-3-11-3-11-5-15-6-17q-6-20-19-41l-5-9-5-10-6-10-3-4-10-12-20-25-11-11-12-10-14-12-3-1h-1l-5-5-21-14-11-7-11-5q-8-4-15-10M771 491zq5 5 8 11c3 8 1 20-3 28q-9 16-28 19-22 2-33-18-2-3 0-5c15 20 44 18 54-5q7-14-1-28zM1202 492l-16 26-41-9q-17-5-35-9v-1l56-5 8-1 8-1 16-1zM652 503l2 1 2 1 34 17v2l-16 17-7 7-7 8-19 22-15 15-10 12-23 25-13 15-1 1h-1l-5 6-4 5-21 23h-2l-39-4 8-13 17-19 19-23 57-67 22-25zM931 525q-8 10-12 19l-15 26q-9 14-16 29l1-2h-1l-7 14-14 22-8 15-1 1H749l-3-1 104-10 4-4 10-13q3-7 9-15l6-10h1l3-4-3 3 2-3 3-3 11-15 19-30 8-10 7-11h1zM778 1130l1-31 4-26q3-23 9-45l5-12 6-8 9-16 14-20 21-29 13-15 6-8 4-6 10-13 8-10 12-14 19-25 16-23 5-8 11-20 5-12 10-31q8-32 9-64l1-25q0-17-3-35-2-31-10-60v-1a1 1 0 0 1 2 0l2 8 1 5 3 11 5 25 4 27 2 31 1 24c-2 20-3 34-7 50l-6 21-4 11-3 7-3 8-4 11-6 10-8 15-8 13-9 15-22 31-1 2-2 3-19 24-12 14-39 50-11 16-9 11q-8 15-12 34l-10 42-4 18zl1 1h274l1 1 1 9-1 1H779a1 1 0 0 1-2-2zM1224 647l29 12-23 21-1-2-27-23-13-11-13-10-11-10 27 10q13 7 29 13zM1090 1318l15 17-2 1H730a1 1 0 0 1-1-2l2-2 9-10 2-4z"/></g><g fill="#fbde8e"><circle cx="734.3" cy="497.3" r="9.1"/><path d="m746 1228 4-10 12-24 7-12 7-13 1-1h280l1 1 2 5 10 18 18 35-1 1z"/></g></svg>